<svg xmlns="http://www.w3.org/2000/svg" width="100%" viewBox="0 0 680 920">
<style>
  text { font-family: 'DM Sans', 'Noto Sans', -apple-system, BlinkMacSystemFont, sans-serif; }
  .th { font-size: 14px; font-weight: 500; }
  .ts { font-size: 12px; font-weight: 400; }
  .leader { stroke-dasharray: 4 3; stroke-width: 0.5; opacity: 0.4; }

  /* Teal ramp */
  .c-teal rect { fill: #E1F5EE; stroke: #0F6E56; }
  .c-teal .th { fill: #085041; }
  .c-teal .ts { fill: #0F6E56; }

  /* Blue ramp */
  .c-blue rect { fill: #E6F1FB; stroke: #185FA5; }
  .c-blue .th { fill: #0C447C; }
  .c-blue .ts { fill: #185FA5; }

  /* Amber ramp */
  .c-amber rect { fill: #FAEEDA; stroke: #854F0B; }
  .c-amber .th { fill: #633806; }
  .c-amber .ts { fill: #854F0B; }

  /* Purple ramp */
  .c-purple rect { fill: #EEEDFE; stroke: #534AB7; }
  .c-purple .th { fill: #3C3489; }
  .c-purple .ts { fill: #534AB7; }

  /* Coral ramp */
  .c-coral rect { fill: #FAECE7; stroke: #993C1D; }
  .c-coral .th { fill: #712B13; }
  .c-coral .ts { fill: #993C1D; }

  /* Red ramp */
  .c-red rect { fill: #FCEBEB; stroke: #A32D2D; }
  .c-red .th { fill: #791F1F; }
  .c-red .ts { fill: #A32D2D; }

  /* Green ramp */
  .c-green rect { fill: #EAF3DE; stroke: #3B6D11; }
  .c-green .th { fill: #27500A; }
  .c-green .ts { fill: #3B6D11; }

  /* Gray ramp */
  .c-gray rect { fill: #F1EFE8; stroke: #5F5E5A; }
  .c-gray .th { fill: #444441; }
  .c-gray .ts { fill: #5F5E5A; }

  .arr { stroke: #888780; stroke-width: 1.5; }
  .leader { stroke: #888780; }

  @media (prefers-color-scheme: dark) {
    .c-teal rect { fill: #085041; stroke: #5DCAA5; }
    .c-teal .th { fill: #9FE1CB; }
    .c-teal .ts { fill: #5DCAA5; }

    .c-blue rect { fill: #0C447C; stroke: #85B7EB; }
    .c-blue .th { fill: #B5D4F4; }
    .c-blue .ts { fill: #85B7EB; }

    .c-amber rect { fill: #633806; stroke: #EF9F27; }
    .c-amber .th { fill: #FAC775; }
    .c-amber .ts { fill: #EF9F27; }

    .c-purple rect { fill: #3C3489; stroke: #AFA9EC; }
    .c-purple .th { fill: #CECBF6; }
    .c-purple .ts { fill: #AFA9EC; }

    .c-coral rect { fill: #712B13; stroke: #F0997B; }
    .c-coral .th { fill: #F5C4B3; }
    .c-coral .ts { fill: #F0997B; }

    .c-red rect { fill: #791F1F; stroke: #F09595; }
    .c-red .th { fill: #F7C1C1; }
    .c-red .ts { fill: #F09595; }

    .c-green rect { fill: #27500A; stroke: #97C459; }
    .c-green .th { fill: #C0DD97; }
    .c-green .ts { fill: #97C459; }

    .c-gray rect { fill: #444441; stroke: #B4B2A9; }
    .c-gray .th { fill: #D3D1C7; }
    .c-gray .ts { fill: #B4B2A9; }

    .arr { stroke: #B4B2A9; }
    .leader { stroke: #B4B2A9; }
  }
</style>
<defs><marker id="arrow" viewBox="0 0 10 10" refX="8" refY="5" markerWidth="6" markerHeight="6" orient="auto-start-reverse"><path d="M2 1L8 5L2 9" fill="none" stroke="context-stroke" stroke-width="1.5" stroke-linecap="round" stroke-linejoin="round"/></marker></defs>

<!-- Tier 1: Ground truth -->
<g class="c-teal">
<rect x="40" y="30" width="600" height="90" rx="16" stroke-width="0.5"/>
<text class="th" x="340" y="52" text-anchor="middle">Ground truth — what's on the wire</text>
</g>
<g class="c-teal">
<rect x="56" y="64" width="130" height="44" rx="6" stroke-width="0.5"/>
<text class="ts" x="121" y="82" text-anchor="middle" dominant-baseline="central">SNMP exporter</text>
</g>
<g class="c-teal">
<rect x="198" y="64" width="130" height="44" rx="6" stroke-width="0.5"/>
<text class="ts" x="263" y="82" text-anchor="middle" dominant-baseline="central">Blackbox exporter</text>
</g>
<g class="c-teal">
<rect x="340" y="64" width="130" height="44" rx="6" stroke-width="0.5"/>
<text class="ts" x="405" y="82" text-anchor="middle" dominant-baseline="central">Prometheus</text>
</g>
<g class="c-teal">
<rect x="482" y="64" width="142" height="44" rx="6" stroke-width="0.5"/>
<text class="ts" x="553" y="82" text-anchor="middle" dominant-baseline="central">Grafana proxy (4)</text>
</g>
<line x1="186" y1="86" x2="338" y2="86" class="arr" marker-end="url(#arrow)"/>
<line x1="470" y1="86" x2="480" y2="86" class="arr" marker-end="url(#arrow)"/>

<!-- Tier 2: Inventory -->
<g class="c-blue">
<rect x="40" y="155" width="600" height="90" rx="16" stroke-width="0.5"/>
<text class="th" x="340" y="177" text-anchor="middle">Inventory — what should exist (NetBox)</text>
</g>
<g class="c-blue">
<rect x="56" y="189" width="130" height="44" rx="6" stroke-width="0.5"/>
<text class="ts" x="121" y="207" text-anchor="middle" dominant-baseline="central">46 sites + GPS</text>
</g>
<g class="c-blue">
<rect x="198" y="189" width="130" height="44" rx="6" stroke-width="0.5"/>
<text class="ts" x="263" y="207" text-anchor="middle" dominant-baseline="central">132 devices</text>
</g>
<g class="c-blue">
<rect x="340" y="189" width="130" height="44" rx="6" stroke-width="0.5"/>
<text class="ts" x="405" y="207" text-anchor="middle" dominant-baseline="central">64 circuits</text>
</g>
<g class="c-blue">
<rect x="482" y="189" width="142" height="44" rx="6" stroke-width="0.5"/>
<text class="ts" x="553" y="207" text-anchor="middle" dominant-baseline="central">399 ISP providers</text>
</g>

<!-- Tier 3: Operational context -->
<g class="c-amber">
<rect x="40" y="280" width="600" height="90" rx="16" stroke-width="0.5"/>
<text class="th" x="340" y="302" text-anchor="middle">Operational context — ServiceNow</text>
</g>
<g class="c-amber">
<rect x="56" y="314" width="140" height="44" rx="6" stroke-width="0.5"/>
<text class="ts" x="126" y="332" text-anchor="middle" dominant-baseline="central">50k incidents</text>
</g>
<g class="c-amber">
<rect x="210" y="314" width="140" height="44" rx="6" stroke-width="0.5"/>
<text class="ts" x="280" y="332" text-anchor="middle" dominant-baseline="central">218 surge clusters</text>
</g>
<g class="c-amber">
<rect x="364" y="314" width="140" height="44" rx="6" stroke-width="0.5"/>
<text class="ts" x="434" y="332" text-anchor="middle" dominant-baseline="central">322 sites registry</text>
</g>
<g class="c-amber">
<rect x="518" y="314" width="108" height="44" rx="6" stroke-width="0.5"/>
<text class="ts" x="572" y="332" text-anchor="middle" dominant-baseline="central">Locations</text>
</g>

<!-- Tier 4: OSINT -->
<text class="ts" x="340" y="400" text-anchor="middle" fill="#888780">External signals (OSINT)</text>
<g class="c-purple">
<rect x="40" y="410" width="190" height="70" rx="12" stroke-width="0.5"/>
<text class="th" x="135" y="436" text-anchor="middle">ACLED</text>
<text class="ts" x="135" y="456" text-anchor="middle">62k conflict events</text>
</g>
<g class="c-blue">
<rect x="245" y="410" width="190" height="70" rx="12" stroke-width="0.5"/>
<text class="th" x="340" y="436" text-anchor="middle">IODA</text>
<text class="ts" x="340" y="456" text-anchor="middle">BGP + ping outages</text>
</g>
<g class="c-teal">
<rect x="450" y="410" width="190" height="70" rx="12" stroke-width="0.5"/>
<text class="th" x="545" y="436" text-anchor="middle">Cloudflare Radar</text>
<text class="ts" x="545" y="456" text-anchor="middle">Outages, BGP hijacks</text>
</g>

<!-- Tier 5: Intelligence layer -->
<g class="c-coral">
<rect x="40" y="520" width="600" height="105" rx="16" stroke-width="0.5"/>
<text class="th" x="340" y="545" text-anchor="middle">HENRI intelligence layer</text>
</g>
<g class="c-coral">
<rect x="56" y="558" width="130" height="56" rx="6" stroke-width="0.5"/>
<text class="th" x="121" y="578" text-anchor="middle" dominant-baseline="central">Risk scorer</text>
<text class="ts" x="121" y="598" text-anchor="middle" dominant-baseline="central">51 countries</text>
</g>
<g class="c-coral">
<rect x="198" y="558" width="135" height="56" rx="6" stroke-width="0.5"/>
<text class="th" x="265" y="578" text-anchor="middle" dominant-baseline="central">Precursor scan</text>
<text class="ts" x="265" y="598" text-anchor="middle" dominant-baseline="central">54% detection</text>
</g>
<g class="c-red">
<rect x="345" y="558" width="135" height="56" rx="6" stroke-width="0.5"/>
<text class="th" x="412" y="578" text-anchor="middle" dominant-baseline="central">Forward alerts</text>
<text class="ts" x="412" y="598" text-anchor="middle" dominant-baseline="central">Real-time spikes</text>
</g>
<g class="c-amber">
<rect x="492" y="558" width="130" height="56" rx="6" stroke-width="0.5"/>
<text class="th" x="557" y="578" text-anchor="middle" dominant-baseline="central">Delta alerting</text>
<text class="ts" x="557" y="598" text-anchor="middle" dominant-baseline="central">±15pt threshold</text>
</g>

<!-- Tier 6: Output -->
<g class="c-green">
<rect x="40" y="670" width="600" height="90" rx="16" stroke-width="0.5"/>
<text class="th" x="340" y="692" text-anchor="middle">Output</text>
</g>
<g class="c-green">
<rect x="56" y="704" width="130" height="44" rx="6" stroke-width="0.5"/>
<text class="ts" x="121" y="722" text-anchor="middle" dominant-baseline="central">FastAPI /api/v1/*</text>
</g>
<g class="c-green">
<rect x="198" y="704" width="130" height="44" rx="6" stroke-width="0.5"/>
<text class="ts" x="263" y="722" text-anchor="middle" dominant-baseline="central">React dashboard</text>
</g>
<g class="c-green">
<rect x="340" y="704" width="130" height="44" rx="6" stroke-width="0.5"/>
<text class="ts" x="405" y="722" text-anchor="middle" dominant-baseline="central">HTML reports</text>
</g>
<g class="c-green">
<rect x="482" y="704" width="142" height="44" rx="6" stroke-width="0.5"/>
<text class="ts" x="553" y="722" text-anchor="middle" dominant-baseline="central">SQLite audit</text>
</g>

<!-- Connections: Tier 1 → Tier 3 (Grafana → registry + risk) -->
<line x1="553" y1="108" x2="434" y2="153" stroke="#5DCAA5" stroke-width="0.5" marker-end="url(#arrow)"/>
<line x1="553" y1="108" x2="121" y2="153" stroke="#5DCAA5" stroke-width="0.5" marker-end="url(#arrow)"/>

<!-- Tier 2 → Tier 3 (circuits → registry) -->
<line x1="405" y1="233" x2="434" y2="278" stroke="#85B7EB" stroke-width="0.5" marker-end="url(#arrow)"/>

<!-- Tier 3 → Tier 5 (incidents → intelligence) -->
<line x1="126" y1="358" x2="280" y2="518" stroke="#EF9F27" stroke-width="0.5" marker-end="url(#arrow)"/>
<line x1="280" y1="358" x2="265" y2="518" stroke="#EF9F27" stroke-width="0.5" marker-end="url(#arrow)"/>
<line x1="434" y1="358" x2="121" y2="518" stroke="#EF9F27" stroke-width="0.5" marker-end="url(#arrow)"/>

<!-- Tier 4 → Tier 5 (OSINT → intelligence) -->
<line x1="135" y1="480" x2="121" y2="518" stroke="#AFA9EC" stroke-width="0.5" marker-end="url(#arrow)"/>
<line x1="135" y1="480" x2="265" y2="518" stroke="#AFA9EC" stroke-width="0.5" marker-end="url(#arrow)"/>
<line x1="135" y1="480" x2="412" y2="518" stroke="#AFA9EC" stroke-width="0.5" marker-end="url(#arrow)"/>
<line x1="340" y1="480" x2="121" y2="518" stroke="#85B7EB" stroke-width="0.5" marker-end="url(#arrow)"/>
<line x1="340" y1="480" x2="265" y2="518" stroke="#85B7EB" stroke-width="0.5" marker-end="url(#arrow)"/>
<line x1="545" y1="480" x2="121" y2="518" stroke="#5DCAA5" stroke-width="0.5" marker-end="url(#arrow)"/>
<line x1="545" y1="480" x2="265" y2="518" stroke="#5DCAA5" stroke-width="0.5" marker-end="url(#arrow)"/>

<!-- Tier 5 internal (risk → delta, risk → forward) -->
<line x1="121" y1="614" x2="557" y2="556" stroke="#F09595" stroke-width="0.5" marker-end="url(#arrow)"/>
<line x1="121" y1="614" x2="412" y2="556" stroke="#F09595" stroke-width="0.5" marker-end="url(#arrow)"/>

<!-- Tier 5 → Tier 6 (intelligence → output) -->
<line x1="121" y1="625" x2="121" y2="668" stroke="#97C459" stroke-width="0.5" marker-end="url(#arrow)"/>
<line x1="265" y1="625" x2="263" y2="668" stroke="#97C459" stroke-width="0.5" marker-end="url(#arrow)"/>
<line x1="412" y1="625" x2="263" y2="668" stroke="#97C459" stroke-width="0.5" marker-end="url(#arrow)"/>
<line x1="557" y1="625" x2="263" y2="668" stroke="#97C459" stroke-width="0.5" marker-end="url(#arrow)"/>

<!-- Tier 6 internal (API → dashboard, reports, sqlite) -->
<line x1="121" y1="748" x2="263" y2="748" class="arr" marker-end="url(#arrow)"/>
<line x1="263" y1="748" x2="405" y2="748" class="arr" marker-end="url(#arrow)"/>
<line x1="263" y1="748" x2="553" y2="748" class="arr" marker-end="url(#arrow)"/>

<!-- Join key annotation -->
<g class="c-gray">
<rect x="200" y="800" width="280" height="44" rx="8" stroke-width="0.5"/>
<text class="th" x="340" y="818" text-anchor="middle" dominant-baseline="central">location_site = universal join key</text>
</g>
<line class="leader" x1="340" y1="800" x2="434" y2="370" stroke="#888780"/>
<line class="leader" x1="340" y1="800" x2="553" y2="120" stroke="#888780"/>
<line class="leader" x1="340" y1="800" x2="121" y2="245" stroke="#888780"/>

</svg>
