<?xml version="1.0" encoding="UTF-8"?>
<svg id="Layer_1" xmlns="http://www.w3.org/2000/svg" version="1.1" viewBox="0 0 1109 256">
  <!-- Generator: Adobe Illustrator 29.8.2, SVG Export Plug-In . SVG Version: 2.1.1 Build 3)  -->
  <defs>
    <style>
      .st0 {
        fill: #d83c3b;
      }
    </style>
  </defs>
  <path class="st0" d="M306,65.03c-.17.17-.83-.17-1,0,1.26-.94,1.71-.71,1,0ZM668,190.01s-.96-.04-1,0c-.93.93,1.93.93,1,0ZM320,64.03c-.4-.47-1.56,1.44-2,1,.16.14-.16.86,0,1,.08.07,1.93.07,2,0s.07-1.92,0-2ZM319.5,67.03c-1.67.41-1.4-.96-1.5-1-.59-.26-2,.59-2-1-1.5-.31-2.54-.92-4-1l-1,2c.89-3.17-3.16-2.37-5-1-.04.03.14,1-.5,1-.37,0-.72-.78-.5-1-1.07.79-2.62.87-3.5,2-4.1-.62,1.68-1.04.5-2s-3.81,1.48-5.5,1c-2.43-.7-4.78.53-8,0-2.91-.48-2.13.58-4,1-2.33.52-4.35-1.19-4.5-1-.2.24.19,1.8,0,2-.8.84-2.37-1.01-2.5-1-.4.02-1.62,2-2,2-.33,0-.66-1-1-1-.25,0-1.07,1.48-1.5,1-.3-.34.8-2.38-1-2l-1,2-.5-2c-.76,1.61-3.19.73-3.5,1-.25.22,3.54,3.17-3.5,2-3.95-.66-11.37.4-15,1-5.15.86-10.05.98-15,2-2.08.43-4.12-1.24-3.5,2-1.73.32-.63-.88-1-1.5-.51-.86-2.41-2.14-3-1.5-.71.77,2.06,2.81-.5,4-1.26-.26.25-2.84-1-3-5.21-.67-2.98,1.55-3.5,2-1.27,1.11-.48-2.65-2-2-.07.83.44,1.89-.5,2s-5.31.19-5.5,0,.19-1.81,0-2c-1.1-1.1-7.12,1.1-7.5,1-.93-.26-4.27-1.88-5-2-7.05-1.15-3.24,1.78-3.5,2-.37.32-4.19-.22-5.5,0-.38.06-.67,1-1,1s-.67-1-1-1-.67,1-1,1c-.41,0-1.53-2.71-4-2-.42.12-.67,1-1,1-.15,0-1.66-1.84-2.5-1-.18.18.68,2.91-1.5,2-3.04-1.27-1.42-.35-3,0-2.27.51-7.63-.77-9-1-.31-.05-.77,1.92-2,0-1.17.62,1.02,1.54.5,2-.85.76-2.44-1.3-3.5-1-.4.12-.62.92-1,1-2.72.6-6.09.03-7.5-2.5-.26-.47.19-1.31,0-1.5-.11-.11-1.99.28-2.5-1l-4.5,3,4.5-1,2.5,3c-2.6-1.39-5.19,2-5.5,2-.33,0-.62-.94-1-1-3.46-.58-8.13,2.24-9,2-1.12-.31-.84-1.78-3,1l-1-2c-.88,1.27-3.06,1.45-4,2-1.03.6-1.54,2.4-3,2-.55-.15-1.44-1.83-2-2-3.52-1.05-2.26,1.76-2.5,2s-6.75.25-7,0c-.19-.19.27-1.03,0-1.5-.88-1.54-2.81-1.87-4.5-1.5-1.11.25-3.67,2.91-4,3-1.28.35-3.48-.23-5,0-.36.05-.59.89-1,1-3.57.99-2.18-1.61-2.5-2-.92-1.1-.94,1.39-1,1.5-1.44,2.54-4.96,1.13-7.5,1.5-.37.05-.61.92-1,1-5.27,1.05-11.93,1.3-16,2-4.43.76-12.28.98-16,2-.75.21-1.46,2.42-3,2-.41-.11-.67-1-1-1-.18,0-2.82,2-3,2-.57,0-1.79-2.82-2.5-1.5l-1-1.5,7-2c-1.2-.88-5.59,1.41-6,1-.22-.22.75-2.84-1.5-2-.41.15-1.1,1.49-1.5,1-.14-.16.11-.9,0-1.5-.17-.9-2.89-.6-3-.5-.49.43,1.92,1.79.5,2-2.82-1.17-4.13,1.76-5,2-1.09.3-2.91-.3-4,0-.58.16-4.68,4-5,4s-.57-.84-1-1c-.56-.2-1.33.17-1.5,0-.19-.19.19-1.81,0-2-1.92-1.92-2.31,3.01-3.5,3-.22,0-2.47-3.09-3.5-2-.15.16.46,3.44-1.5,4-1.19.34-3.21-.42-3.5-1.5-.4-1.47,1.95-1.76,0-3,.62-1.19,1.1.5,1.5.5.81,0,3.52-3.82,2.5-5-.41-.48-1.21,1.37-2.5,1-.4-.12-.61-.91-1-1-.75-.18-2.3.2-2.5,0-.19-.19.26-1.03,0-1.5-.49-.87-2.43-2.12-3-1.5-.14.15-.14,3.86,0,4,.24.24,3.04-.16,4,0l-2,1.5c2.57,2.37-.59,1.1-1,1.5-.76.74,1.29,2.48,1,3.5-.09.3-1.84,1.49-.5,1.5.25,0,1.09-1.5,1.5-1,.17.21-.22.96,0,1.5.24.57,2,2.82,2,3s-2.33,2.45-2.5,2.5c-1.97.54-3.82-.51-5.5,2.5-.26.47.19,1.31,0,1.5-.25.25-2.73-.25-3,0-1.22,1.15,2.56,3.67,3,4.5.29.56-3.92.43-2,2.5.54.58,4.17-1.66,3,3-4.36-.83-2.5,1.39-3,2-.41.5-1.25-1-1.5-1-1.55.01-1.91,5-1.5,6.5.35,1.28,3.44,1.6,4,3,.88,2.21-1.81,1.31-2,1.5-.17.17.22.96,0,1.5-.18.42-.9.63-1,1-.99,3.61,2.18,1.94,3,4,.88,2.21-1.81,1.31-2,1.5-1.14,1.14,1.84,2.94,2,3.5.36,1.32-.31,3.55,0,5,.14.66,3,4.71,3,5,0,.44-4.22,2.67.5,3.5.78.14,2.27-.19,2.5,0,.5.41-.9,1.13-1,1.5-.69,2.6,1.75,3.12,2,4,.67,2.33,2,3.76,2,4,0,.17-1.6,1.03-1,3,.12.4.89.61,1,1,.27.96-2.05,3.47-1,4.5.33.33,2.81-.66,3,.5l-4,2c1.23,2.58,3.13-.22,4,.5.49.41-1,1.25-1,1.5s1.92,3.58,2,4c.27,1.5-.36,3.7,0,5,.07.27,2.52,2.86,3,4,.23.54-.18,1.32,0,1.5.19.19,1.76-.2,2,0,.5.41-.93,1.16-1,1.5-.16.82-.19,5.3,0,5.5s1.81-.19,2,0-.19,1.81,0,2c.21.21,1.78-.21,2.5,0,.27.08,4.31,3.19,4.5,3.5.16.26-.15.79,0,1,.44.63,1.99,1.71,2,2,0,.2-2.32,3.23-2,3.5s3.01-.18,4,0c.4,1.79-1.74.72-2,1-.98,1.07.76,2.93,1,3.5.22.54-.17,1.33,0,1.5.19.19,1.81-.19,2,0,.34.34-.34,4.66,0,5,.19.19,1.81-.19,2,0,.13.13-.12,2.55,1.5,3,1.05.29,3.57-2.35,5-3,3.67.28,6.8-.17,10-1,4.02-1.04,9.79-3.74,13-3,2.63.61,10.21-2.11,13-3,2.2-.7,3.4-.56,5-1,.7-.19,2.3-2.81,3-3,2.23-.62,7.15.26,10,0,1.15-.1,8.36-2.18,9-2,2.83.78,4.88-.22,8-1,7.81-1.94,20.3-.14,26-2,4.94-1.62,11.76-.36,18-1,.36-.04.62-.94,1-1,6.85-1.03,12.31.35,19-1,5.35-1.08,12.04,1.34,18,0,2.69-.6,13.57-.67,16,0,1.01.28,12.07-2.45,14-2,5.6,1.31,10.27-2.28,16-1,5.07,1.14,15.3-2.57,21-1,.78.22,10.84-2.51,15-2,.83.1,5.12,1.87,6,2,5.04.75,10.41-3.16,11-3,2.71.75,3.53.45,6,1,7.5,1.68,13.09-1,19-1,3.46,0,5.58.91,10,0,.81-.17,5.66-2,6-2,.39,0,1.45,1.85,2,2,.88.24,7.96-2.51,11-2,5.55.92,14.45-1.69,20,0,.58.18,9.36-.99,10-1,.23,0,2.88,2.3,4,2,.44-.12,2.62-1.92,3-2,1.72-.37,10.12-.31,12,0,3.99.66,13.9.85,19,0s11.02.83,16,0c8.51-1.42,21.49,1.54,31-1,1.93-.51,7.96-.34,10,0,3.59.6,10.23-.49,12-1,1.52-.44,7.21,1.63,11,1,4.14-.69,16.45.41,20,1,5.1.85,9.46-.25,14,1,.86.24,6.27-2.28,6.5-2,.2.24-.19,1.81,0,2,.45.45,7.71-.4,9.5,0,5.07,1.14,11.21-.35,17,1,3.01.7,5.39-2.22,10-1,.4.11.63.93,1,1,1.84.33,18.81.69,19.5,0,.19-.19-.19-1.79,0-2,.56-.61,2.82,2.81,3.5,3,.72.2,4.19.18,5,0,1.23-.28,2.96-.83,4-1,4.01-.67,8,1.38,13,0,1.87-.52.93-2.17,6-1,2.82.65,4.41.32,7,1,5.27,1.39,10.69-.37,12,0,3.01.86,3.59-1,4-1,.38,0,1.62,2,2,2,.33,0,.59-.89,1-1,1.16-.31,2.86-.32,4-1,.65-.39,1.67-2,2-2,.18,0,2.82,2,3,2,.15,0,1.66-1.84,2.5-1,.34.34-.94,2.89,2,2-.54-2.05.96-1.89,1-2,.19-.51-.18-1.78,0-2,1.03-1.23.92,1.83,1,2,.17.35,2.33.89,2.5,1,.65.41,1.69,2,2,2,.33,0,.62-.94,1-1,2.38-.4,5.79.49,8,0,.4-.09.68-1.36,2-1,6.66,1.84,7.49,1.27,13,0,2.48-.57,4.12,1.24,5,1,.55-.15,1.6-1.99,2-2,1.18-.03,1.58,4.11,2.5,3,.2-.23-.19-1.77,0-2,.45-.52.83,1.23,2,.5.89-.55,1.15-1.87,2.5-1.5.39.11.6.88,1,1,1.97.6,2.83-1,3-1,.37,0,1.62,2,2,2,.2,0,1.84-1.7,1.5-2s-2.38.8-2-1c1.75.78,3.18-.95,3.5-1,2.34-.34,12.95.47,13.5,0,1.37-1.15.13-1.92-1.5-2-10.28-.51-20.7.37-31,0-3.45-.55-9.56-.43-13-1-1.31-.22-5.12.32-5.5,0-2.47-2.08,2.16-1.88,2.5-2,2.37-.85,1.42,0,2,0,.18,0,2.64-1.92,3-2,3.2-.69,9.5,1.14,10,1,.44-.12,2.53-1.86,3-2,1.75-.51,7.42,2.59,11,2,3.1-.52,5.49,1.46,7,1,6.26-1.9,9.32.72,16,0,11.66-1.25,21.71-.96,32,0,7.29.68,10.35-.97,16-2,4.52-.83,4.76,1.66,6,2s3.11-1.75,4-2c1.29-.37,2.09,1.48,2.5,1,.26-.31-.26-2.74,0-3,1.02-1.05,3.32.97,3.5,1,1.31.2,5.13-.31,5.5,0s-1.81,2-.5,2c.26,0,.69-1.36,2-1,2.28.63,2.13-.24,3,0,2.55.7,1.2-.47,4,0,1.34.22,11.06.37,11.5,0,.46-.39-1.46-1.61-1-2,1.21-1.02,6.34,1.37,8.5,1,.38-.07.66-1,1-1,.25,0,1.09,1.5,1.5,1,.56-.68-1.3-2.79,2.5-2,.39.08.67,1,1,1s.67-1,1-1c.63,0-.1,1.52,3,1,1.63-.27,16.59.63,18,1,9.86,2.6,16.4-1.28,25,0,5.35.79,7.21,1.76,13,0,1.95-.59,2.83.99,3,1,.18,0,1.75-1.78,3.5-1-.71-2.24-4.54-2.94-1.5-5,1.66,2.32,2.43.11,3,0,.91-.18,2.06.16,3,0,.38-.07.67-1,1-1,.46,0,6.63,2.8,8,3,1.26.18,9.16.33,9.5,0,.7-.68-1.67-3.24-1-4,.4-.45,1.48,1.94,2.5,0,1.54,1.37,3.76,1.79,5,2,4.68.78,11.08-.57,16,0,1.42-.21-.99-1.57-.5-2,.85-.76,2.44,1.3,3.5,1,3.79-1.09,7.12-1.34,12,0,.88.24.9-.85,4,0,1.31.36,1.75-1,2-1,.33,0,.67,1,1,1s1.34-1.63,2-2c.47-.26,1.31.19,1.5,0,.35-.35-.94-4.02,1.5-3,2.26.94,4.13,1.48,7,1s2.18.61,4,1c1.32.29,11.88.31,13,0,.75-.21,1.46-2.42,3-2,2.31.64,3.4.58,6,0,3.12-.69,5.5,1.58,8,1,2.75-.64,5.69-4.7,8-2,.52-1.28,2.4-.9,2.5-1,.69-.71-1.69-3.29-1-4,.82-.84,2.37,1.01,2.5,1,.34,0,.62-.94,1-1,1.24-.2,2.79.22,4,0,.35-.06.57-.82,1-1,.54-.22,1.33.17,1.5,0,.25-.25-.26-2.68,0-3,.41-.5,1.25,1,1.5,1,.34,0,.61-.93,1-1,.95-.17,3.27.23,3.5,0,.19-.19-.19-1.81,0-2,.21-.21,4.41-.69,5.5-1s1.78-3.45,3.5-4.5c1.34-.82,2.82-.34,3-.5.52-.45-1.67-1.38-.5-2,1.31,1.85,1.15.31,2,0,.56-.2,1.33.17,1.5,0,.19-.19-.26-1.03,0-1.5.75-1.34,5.76-6.18,6-7,.21-.72-.21-2.29,0-2.5.3-.3,3.7.3,4,0,.18-.18-.23-.97,0-1.5.19-.43,1.48-1.1,1-1.5-.39-.32-3.05,1.01-2-2.5.36-1.2,1.97-1.26,2.5-1.5.44-.21.7-1,1-1,.5,0,.76,1.96,2,0l7.5-1c-.11-3.55-8.39-.55-7-3.5,1.11-2.34,6.7-1.31,6-4,1.41-2.48,3.69-1,5.5-1.5,2.43-.67.5-2.32.5-2.5,0-.31.82-.56,1-1,.88-2.21-1.81-1.31-2-1.5s.19-1.81,0-2c-.35-.35-4.57.37-5,0-.46-.39,1.46-1.61,1-2-.23-.2-1.81.19-2,0-.7-.7,1.66-7.7-2.5-4l-3.5-1.5,4.5-2.5c1.66-.05,3.34.07,5,0,1.24-.05,3.73.76,3.5-1-3.87-.44-8.82.61-12.5,0-5.95-.99-16.67-.53-22-2-1.31-.36-1.53.86-2,1-2.5.76-3.16-1.77-4-2-1.31-.36-1.71.98-2,1-.18.01-1.75-1.78-3.5-1l2-3-4.5-1-2.5,1,4,3-4.5-1c-7.3,1.59-17.1-.68-23-2-4.1-.92-9.89-.48-13-1-6.67-1.11-14.22-1.72-20-3-3.01-.66-7.81.57-11,0-.37-.07-.59-.87-1-1-.62-.2-3.5-.06-3.5-1.5,0-.15,1.84-1.66,1-2.5-.36-.36-6.54.26-8,0-.2,1.86,2.22.81,3.5,1,1.82.27,2.75,1.12,2.5,3-1.74-.16-2.53-.86-4.5-1-11.86-.83-24.18-2.2-35-4-5.54-.92-20.2-3.05-24-2-.61.17-7.22-2.63-11-2-4.54.76-13.63-2.92-19-2-6.48,1.11-26.28-5-34-5-7.09,0-18.29-.88-25-2-8.09-1.34-18.09-.68-26-2-6.29-1.05-13.72.18-19-1-8.21-1.84-21.53.24-29-1-4.46-.74-10.13.09-14,1-2.26.53-10.2-1.63-14-1-1.95.32-4.44-.22-6.5,0l2-3c-3.48.68-6.18-1.6-9.5-1-.37.07-.59.87-1,1-1.97.6-2.83-1-3-1-.64,0-2.12,1.94-.5,2.5.13.88-1.93.57-2,.5-.26-.26.61-1.6-.5-2-1.02-.37-1.88-.97-2-1-3.5-.76-6.31,1.46-9,1-2.06-.35-5.03-.47-7-1-2.85-.76-6.65-.39-9,0-1.95.32-4.44-.22-6.5,0-.86,3.82,4.09,1.22,5,2,.34.29-1.29,2-1.5,2-.33,0-.62-.94-1-1-3.2-.53-10.52.81-11.5.5-1.77-.56-3.2-.62-5-.5-.23-1.75,2.28-.97,3.5-1,1.67-.04,3.33.04,5,0,2.06-.05,2.89.72,2.5-2-3.62-.39-7.57,2.69-10.5,0-1.41.26-7.13-.36-7.5,0-.07.07-.38,2.13.5,2l5.5,1c-2.27.24-5.06-.79-6.5,1-.54-1.3-2.35-.87-2.5-1-.45-.41,1.46-1.6,1-2-.19-.16-1.65.32-3-.5-1.23-.75-1.16-2.39-2.5-.5l-4.5,1,4,2c-1.75.19-3.84-.28-5.5,0-.54.09-.77,1.93-2,0-.6-.94,1.19-2.25.5-3-.55-.6-3.01.89-3,1.5,0,.26,1.5,1.09,1,1.5-.35.29-8.65.28-9,0-.42-.33,2.08-1.37-.5-3-.95-.6.27,2.53-1.5,2,.07-.07.07-1.93,0-2-.2-.2-4.86-.48-4,1,1.2-.45,3.32,1.7,4,1,.34,1.74-1.12.71-2.5,1-.39.08-.67,1-1,1s-.62-.94-1-1c-2.53-.42-5.84.3-8.5,0-.22-2.11,3.38-.48,4-1,.31-.25-1.11-1.89-1.5-2-.84-.23-10.1-.34-10.5,0-.27.23,1.75,2.28,1,3-.33.32-4.76-.22-6,0l2.5-1c1.92.69,1.87-1.69,1.5-2-.5-.42-7.63.31-9.5,0-4.28-.71-20.78-.92-24,0-1.99.57-2.71-.95-3-1-4.75-.85-10.45-.41-14-1-1.04-.17-7.23-.27-7.5,0-.22.22.42,2.54-.5,2-4.77-2.78-6.77-1.05-11-2-5.05-1.13-11.49,0-17,0-.49,0-6.21-1.91-7-2-4.89-.53-12.87,1.73-16,1-15.54-3.63-35.46,1.63-51-2-2.53-.59-10.91,1.51-14,1-9.52-1.58-19.38,1.78-27,0-.83-.19-12.26.84-13,1-1.54.34-3.81-.23-5.5,0l4,3h-4c1.17-2.99-5.02-3.82-6-3-.66.56,2.58,2.02,1.5,3h-4.5c2.67-4.53-.31-2.47-3.5-3-2.48-.41-3.17-.63-6,0-1.79.4-9.05-.45-9.5,0-.3.3.3,3.7,0,4-.44.44-10.34-.36-12.5,0-.38.06-.66,1-1,1-.25,0-1.05-1.47-1.5-1-.04.04.17.84-.5,1ZM418,62.03l2,2c-2.11.26-2.26.11-2-2ZM423,64.03c-1.09-.91,1.32-.92,1.5-1,.43-.19,1.1-1.49,1.5-1,.07.08.07,1.93,0,2-.11.11-2.88.1-3,0ZM432,64.03c-.26-2.11-.11-2.26,2-2l-2,2ZM454.5,64.03c-1.6.07-3.57-.25-5,0-2.03.36-.61,1.06-4,0-1.84-.58-3.12,1.56-5,1-.53-.16-.86-1.54-2.5-1,.94-3.12,2.1-1,2.5-1h17.5c.23,1.76-2.26.95-3.5,1ZM360,63.03l2,2c-2.11.26-2.26.11-2-2ZM368,63.03l2,2c-2.11.26-2.26.11-2-2ZM374,63.03c.41-.5,1.25,1,1.5,1,.15,0,1.48-1.82,2.5-1,1.74,1.4-6.79,3.41-4,0ZM403,63.53c-.45-.77,2.85-.65,3-.5,1.42,1.42-1.24,3.51-3,.5ZM411,64.53c0,1.42-2.92-1.5-1.5-1.5.11,0,1.5,1.39,1.5,1.5ZM415.5,64.03c-.43.19-1.1,1.49-1.5,1-1.51-1.84,2.04-2.8,3-2,1.09.91-1.32.92-1.5,1ZM460,63.53c-.44-.75,3.78-.68,4-.5.51.41-2.1,3.75-4,.5ZM465.5,64.03c-.65,0-.65-1,0-1s.65,1,0,1ZM474.5,65.03c-.87-.22-3.03.4-2.5-.5,2-3.42,4.98.3,4,1.5-.41.5-1.13-.91-1.5-1ZM497,66.03l-4-.5,2-2.5c.08.63-.14,1.85,0,2,.26.28,2.4-.79,2,1ZM511.5,67.03c-3.41.59-6-1.68-9.5-1-.38-1.8,1.66-.7,2-1,.48-.43-1-1.25-1-1.5.01-1.35,1.26.46,1.5.5,3.11.52,7.23-.37,10.5,0l-3.5,3ZM340.5,65.03c-.65,0-.65-1,0-1s.65,1,0,1ZM347.5,65.03c-.65,0-.65-1,0-1s.65,1,0,1ZM478,65.03c-.8-.67,1.24-1.64,2-1,.8.67-1.24,1.64-2,1ZM498,64.03c.67-.8,1.64,1.24,1,2-.67.8-1.64-1.24-1-2ZM500.5,66.03c-.65,0-.65-1,0-1s.65,1,0,1ZM516,65.03l2,2c-2.11.26-2.26.11-2-2ZM519.5,66.03c-.65,0-.65-1,0-1s.65,1,0,1ZM522.5,67.03c-.65,0-.65-1,0-1s.65,1,0,1ZM531.5,67.03c-.65,0-.65-1,0-1s.65,1,0,1ZM557,67.53c0,1.42-2.92-1.5-1.5-1.5.11,0,1.5,1.39,1.5,1.5ZM561.5,67.03c-.65,0-.65-1,0-1s.65,1,0,1ZM568,66.03l2,2c-2.11.26-2.26.11-2-2ZM572,66.03l2,2c-2.11.26-2.26.11-2-2ZM587,68.03c-.73-.59,2.71-3.04,4-2,.73.59-2.71,3.04-4,2ZM564.5,68.03c-.65,0-.65-1,0-1s.65,1,0,1ZM626,67.03c.12-.1,2.88-.1,3,0,1.57,1.31-4.57,1.31-3,0ZM664.5,68.03c-.65,0-.65-1,0-1s.65,1,0,1ZM683.5,68.03c-1.83.04-3.68-.03-5.5,0-.23-1.75,2.28-.97,3.5-1,1.83-.04,3.68.03,5.5,0,.23,1.75-2.28.97-3.5,1ZM693,68.03c-.8-.67,1.24-1.64,2-1,.8.67-1.24,1.64-2,1ZM696,67.53c-.43-.73,4.81-.69,5-.5,1.98,1.98-3.29,3.43-5,.5ZM269.5,70.03c-.65,0-.65-1,0-1s.65,1,0,1ZM44,90.03c.67-.8,1.64,1.24,1,2-.67.8-1.64-1.24-1-2ZM35,94.53l-4-1h4l4-1.5-4,2.5ZM27.5,97.03c-.65,0-.65-1,0-1s.65,1,0,1ZM1056.5,104.03c-.65,0-.65-1,0-1s.65,1,0,1ZM1062,105.03c-.41.5-1.13-.91-1.5-1-.61-.16-3.79.08-2.5-1,.15-.13,3.86-.14,4,0,.07.07.07,1.92,0,2ZM1063.5,104.03c-.65,0-.65-1,0-1s.65,1,0,1ZM1065,106.03c-1.09-1.09.91-3.09,2-2s-.91,3.09-2,2ZM1072,104.03c.67-.8,1.64,1.24,1,2-.67.8-1.64-1.24-1-2ZM7.5,111.02c-.65,0-.65-1,0-1s.65,1,0,1ZM673,185.01c-.39.39-8.33-.29-10,0l2.5-3c1.49.72,2.83-1,3-1,.32,0,.58.88,1,1,1.77.52,3.27-1.27,3.5-1,.13.15.14,3.86,0,4ZM625,185.01c-.52-.42,2-2.81,3-2,.52.42-2,2.81-3,2ZM660,185.01c-.26-2.11-.11-2.26,2-2l-2,2ZM621.5,185.01c-.65,0-.65-1,0-1s.65,1,0,1ZM21.5,188.01c-.65,0-.65-1,0-1s.65,1,0,1ZM610.5,191.01c-.65,0-.65-1,0-1s.65,1,0,1ZM24.5,195.01c-.65,0-.65-1,0-1s.65,1,0,1ZM316,65.03c.63.13,1.81-.16,2,0-.85-.85-2-1.91-2,0ZM1012.5,93.03c-.37-.04-.63-.95-1-1-1.72-.23-3.73.16-5.5,0,1.23,3.33,5.72,1.69,8.5,2,.37.04.63.95,1,1,1.72.23,3.73-.16,5.5,0-1.23-3.33-5.72-1.69-8.5-2ZM757.5,187.01c-1.22.03-3.73-.75-3.5,1l7.5,1c1.01-.54,2.11,1.46,2.5,1,.1-.11.11-2.89,0-3-.23-.23-5.4-.02-6.5,0ZM1027,94.03c.86,3.04,3.55,1.6,5.5,2,.34.07.56.78,1,1,1.69.86,1.95-1.62,1.5-2l-8-1ZM724.5,189.01c-.88,2.04-4.41-.25-4.5,2,1.82-.03,3.67.04,5.5,0,1.22-.03,3.73.75,3.5-1l-4.5-1ZM747.5,187.01c-1.22.03-3.73-.75-3.5,1,1.82-.03,3.67.04,5.5,0,1.22-.03,3.73.75,3.5-1-1.82.03-3.67-.04-5.5,0ZM121,78.53c-1,.24-2.28.3-2,1.5,1.86.41,2.88-.61,4.5-1,1.05-.25,2.77.79,2.5-1-1.79-.22-3.26.08-5,.5ZM772.5,188.01c-1.15.04-2.75-.66-2.5,1,1.82-.04,3.67.06,5.5,0,1.15-.04,2.75.66,2.5-1-1.82.04-3.67-.06-5.5,0ZM724.5,66.03c-1.16-.03-3.75-.71-3.5,1l6.5,1c.88.13.57-1.93.5-2-.15-.15-2.59.02-3.5,0ZM738,66.03c-1.3,1.09,1.94.84,2.5,1,.2.06,1.68,1.82,2.5,1,.07-.07.07-1.93,0-2-.18-.18-4.81-.16-5,0ZM712,66.03c-.07.07-.07,1.92,0,2,.41.5,1.16-.93,1.5-1,.98-.19,6.06.3,4.5-1-.23-.19-5.79-.21-6,0ZM974,90.03c1.2-.45,3.32,1.7,4,1,.07-.07.07-1.93,0-2-.2-.2-4.86-.48-4,1ZM738,187.51c-.44.75,3.78.68,4,.5.51-.41-2.1-3.75-4-.5ZM1003.5,91.03c-.32,0-.57.85-1,1-.27.1-2.57.1-1.5,1,.15.13,3.84.13,4,0,.34-.28-1.29-2-1.5-2ZM946,87.03c1.09,1.09,3.09-.91,2-2s-3.09.91-2,2ZM735,188.01c1.09,1.09,3.09-.91,2-2s-3.09.91-2,2ZM994.5,91.03c-.43-.19-1.1-1.49-1.5-1-2.24,2.73,4.55,2.3,3,1-.21-.17-.97.23-1.5,0ZM611.5,66.03c-.43-.19-1.1-1.49-1.5-1-2.24,2.73,4.55,2.3,3,1-.21-.17-.97.23-1.5,0ZM705,67.03c.76.64,2.8-.33,2-1-.76-.64-2.8.33-2,1ZM1023,95.03c.76.64,2.8-.33,2-1-.76-.64-2.8.33-2,1ZM729,66.03c-.64.76.33,2.8,1,2,.64-.76-.33-2.8-1-2ZM746,67.03c.76.64,2.8-.33,2-1-.76-.64-2.8.33-2,1ZM768,187.01c-.64.76.33,2.8,1,2,.64-.76-.33-2.8-1-2ZM767,68.03c.76.64,2.8-.33,2-1-.76-.64-2.8.33-2,1ZM909,82.03c.76.64,2.8-.33,2-1-.76-.64-2.8.33-2,1ZM117,79.03c-.64.76.33,2.8,1,2,.64-.76-.33-2.8-1-2ZM96,79.03c-.64.76.33,2.8,1,2,.64-.76-.33-2.8-1-2ZM111,76.03c-.64.76.33,2.8,1,2,.64-.76-.33-2.8-1-2ZM135.5,76.03c.65,0,.65-1,0-1s-.65,1,0,1ZM839.5,73.03c.65,0,.65-1,0-1s-.65,1,0,1ZM194.5,73.03c.65,0,.65-1,0-1s-.65,1,0,1ZM170.5,73.03c.65,0,.65-1,0-1s-.65,1,0,1ZM949.5,87.03c.65,0,.65-1,0-1s-.65,1,0,1ZM951.5,87.03c.65,0,.65-1,0-1s-.65,1,0,1ZM955.5,88.03c.65,0,.65-1,0-1s-.65,1,0,1ZM966.5,89.03c.65,0,.65-1,0-1s-.65,1,0,1ZM968.5,89.03c.65,0,.65-1,0-1s-.65,1,0,1ZM21.5,90.03c.65,0,.65-1,0-1s-.65,1,0,1ZM972.5,90.03c.65,0,.65-1,0-1s-.65,1,0,1ZM759.5,68.03c.65,0,.65-1,0-1s-.65,1,0,1ZM984.5,91.03c.65,0,.65-1,0-1s-.65,1,0,1ZM735.5,67.03c.65,0,.65-1,0-1s-.65,1,0,1ZM327.5,64.03c.65,0,.65-1,0-1s-.65,1,0,1ZM719.5,67.03c.65,0,.65-1,0-1s-.65,1,0,1ZM709.5,67.03c.65,0,.65-1,0-1s-.65,1,0,1ZM598.5,67.03c.65,0,.65-1,0-1s-.65,1,0,1ZM1047.5,98.03c.65,0,.65-1,0-1s-.65,1,0,1ZM1052.5,98.03c.65,0,.65-1,0-1s-.65,1,0,1ZM1083.5,112.02c.65,0,.65-1,0-1s-.65,1,0,1ZM938.5,177.01c.65,0,.65-1,0-1s-.65,1,0,1ZM827.5,181.01c.65,0,.65-1,0-1s-.65,1,0,1ZM273.5,66.03c.65,0,.65-1,0-1s-.65,1,0,1ZM779.5,189.01c.65,0,.65-1,0-1s-.65,1,0,1Z"/>
</svg>